<mxfile host="Electron" modified="2023-10-17T05:15:31.071Z" agent="Mozilla/5.0 (X11; Linux x86_64) AppleWebKit/537.36 (KHTML, like Gecko) draw.io/21.2.8 Chrome/112.0.5615.165 Electron/24.2.0 Safari/537.36" etag="9k0BoEPw61JX0v_Fimzr" version="21.2.8" type="device">
  <diagram name="Page-1" id="GhyEJFUGB68-PMfAT87G">
    <mxGraphModel dx="2408" dy="1069" grid="1" gridSize="10" guides="1" tooltips="1" connect="1" arrows="1" fold="1" page="1" pageScale="1" pageWidth="850" pageHeight="1100" math="0" shadow="0">
      <root>
        <mxCell id="0" />
        <mxCell id="1" parent="0" />
        <mxCell id="NXSZnqqENL-7S4XXd65T-59" style="edgeStyle=orthogonalEdgeStyle;rounded=0;orthogonalLoop=1;jettySize=auto;html=1;exitX=1;exitY=0.5;exitDx=0;exitDy=0;entryX=0.25;entryY=1;entryDx=0;entryDy=0;shape=flexArrow;fillColor=none;" edge="1" parent="1" source="NXSZnqqENL-7S4XXd65T-1" target="NXSZnqqENL-7S4XXd65T-58">
          <mxGeometry relative="1" as="geometry" />
        </mxCell>
        <mxCell id="NXSZnqqENL-7S4XXd65T-1" value="MM00" style="rounded=0;whiteSpace=wrap;html=1;" vertex="1" parent="1">
          <mxGeometry x="240" y="400" width="160" height="40" as="geometry" />
        </mxCell>
        <mxCell id="NXSZnqqENL-7S4XXd65T-60" style="edgeStyle=orthogonalEdgeStyle;rounded=0;orthogonalLoop=1;jettySize=auto;html=1;entryX=0.5;entryY=1;entryDx=0;entryDy=0;shape=flexArrow;" edge="1" parent="1" source="NXSZnqqENL-7S4XXd65T-3" target="NXSZnqqENL-7S4XXd65T-58">
          <mxGeometry relative="1" as="geometry">
            <Array as="points">
              <mxPoint x="450" y="460" />
            </Array>
          </mxGeometry>
        </mxCell>
        <mxCell id="NXSZnqqENL-7S4XXd65T-3" value="MM01" style="rounded=0;whiteSpace=wrap;html=1;" vertex="1" parent="1">
          <mxGeometry x="240" y="440" width="160" height="40" as="geometry" />
        </mxCell>
        <mxCell id="NXSZnqqENL-7S4XXd65T-61" style="edgeStyle=orthogonalEdgeStyle;rounded=0;orthogonalLoop=1;jettySize=auto;html=1;entryX=0.75;entryY=1;entryDx=0;entryDy=0;shape=flexArrow;" edge="1" parent="1" source="NXSZnqqENL-7S4XXd65T-4" target="NXSZnqqENL-7S4XXd65T-58">
          <mxGeometry relative="1" as="geometry">
            <Array as="points">
              <mxPoint x="420" y="540" />
            </Array>
          </mxGeometry>
        </mxCell>
        <mxCell id="NXSZnqqENL-7S4XXd65T-4" value="MMnn" style="rounded=0;whiteSpace=wrap;html=1;" vertex="1" parent="1">
          <mxGeometry x="240" y="520" width="160" height="40" as="geometry" />
        </mxCell>
        <mxCell id="NXSZnqqENL-7S4XXd65T-15" value="" style="edgeStyle=orthogonalEdgeStyle;rounded=0;orthogonalLoop=1;jettySize=auto;html=1;shape=flexArrow;" edge="1" parent="1" source="NXSZnqqENL-7S4XXd65T-12" target="NXSZnqqENL-7S4XXd65T-14">
          <mxGeometry relative="1" as="geometry" />
        </mxCell>
        <mxCell id="NXSZnqqENL-7S4XXd65T-28" value="ADDR[15:0]" style="edgeLabel;html=1;align=center;verticalAlign=middle;resizable=0;points=[];" vertex="1" connectable="0" parent="NXSZnqqENL-7S4XXd65T-15">
          <mxGeometry x="-0.2088" y="-1" relative="1" as="geometry">
            <mxPoint x="-8" y="-21" as="offset" />
          </mxGeometry>
        </mxCell>
        <mxCell id="NXSZnqqENL-7S4XXd65T-12" value="" style="triangle;whiteSpace=wrap;html=1;" vertex="1" parent="1">
          <mxGeometry x="290" y="120" width="60" height="80" as="geometry" />
        </mxCell>
        <mxCell id="NXSZnqqENL-7S4XXd65T-26" style="edgeStyle=orthogonalEdgeStyle;rounded=0;orthogonalLoop=1;jettySize=auto;html=1;entryX=0;entryY=0.5;entryDx=0;entryDy=0;shape=flexArrow;" edge="1" parent="1" source="NXSZnqqENL-7S4XXd65T-14" target="NXSZnqqENL-7S4XXd65T-35">
          <mxGeometry relative="1" as="geometry">
            <mxPoint x="585" y="345" as="targetPoint" />
            <Array as="points" />
          </mxGeometry>
        </mxCell>
        <mxCell id="NXSZnqqENL-7S4XXd65T-27" value="ADDR[15:12]" style="edgeLabel;html=1;align=center;verticalAlign=middle;resizable=0;points=[];" vertex="1" connectable="0" parent="NXSZnqqENL-7S4XXd65T-26">
          <mxGeometry x="-0.0783" relative="1" as="geometry">
            <mxPoint y="-11" as="offset" />
          </mxGeometry>
        </mxCell>
        <mxCell id="NXSZnqqENL-7S4XXd65T-37" value="" style="edgeStyle=orthogonalEdgeStyle;rounded=0;orthogonalLoop=1;jettySize=auto;html=1;shape=flexArrow;" edge="1" parent="1" source="NXSZnqqENL-7S4XXd65T-14" target="NXSZnqqENL-7S4XXd65T-36">
          <mxGeometry relative="1" as="geometry" />
        </mxCell>
        <mxCell id="NXSZnqqENL-7S4XXd65T-38" value="ADDR[11:0" style="edgeLabel;html=1;align=center;verticalAlign=middle;resizable=0;points=[];" vertex="1" connectable="0" parent="NXSZnqqENL-7S4XXd65T-37">
          <mxGeometry x="0.1934" y="4" relative="1" as="geometry">
            <mxPoint x="-18" y="-16" as="offset" />
          </mxGeometry>
        </mxCell>
        <mxCell id="NXSZnqqENL-7S4XXd65T-48" style="edgeStyle=orthogonalEdgeStyle;rounded=0;orthogonalLoop=1;jettySize=auto;html=1;entryX=0.5;entryY=0;entryDx=0;entryDy=0;shape=flexArrow;exitX=1;exitY=0.5;exitDx=0;exitDy=0;" edge="1" parent="1" source="NXSZnqqENL-7S4XXd65T-64" target="NXSZnqqENL-7S4XXd65T-47">
          <mxGeometry relative="1" as="geometry">
            <Array as="points">
              <mxPoint x="-10" y="630" />
              <mxPoint x="-10" y="390" />
            </Array>
          </mxGeometry>
        </mxCell>
        <mxCell id="NXSZnqqENL-7S4XXd65T-14" value="n-4&lt;br&gt;4" style="ellipse;whiteSpace=wrap;html=1;" vertex="1" parent="1">
          <mxGeometry x="490" y="210" width="120" height="80" as="geometry" />
        </mxCell>
        <mxCell id="NXSZnqqENL-7S4XXd65T-32" value="" style="shape=flexArrow;endArrow=classic;html=1;rounded=0;exitX=1;exitY=0.5;exitDx=0;exitDy=0;fillColor=default;" edge="1" parent="1" source="NXSZnqqENL-7S4XXd65T-1">
          <mxGeometry width="50" height="50" relative="1" as="geometry">
            <mxPoint x="480" y="430" as="sourcePoint" />
            <mxPoint x="520" y="420" as="targetPoint" />
          </mxGeometry>
        </mxCell>
        <mxCell id="NXSZnqqENL-7S4XXd65T-33" value="" style="shape=flexArrow;endArrow=classic;html=1;rounded=0;exitX=1;exitY=0.5;exitDx=0;exitDy=0;fillColor=default;" edge="1" parent="1" source="NXSZnqqENL-7S4XXd65T-3">
          <mxGeometry width="50" height="50" relative="1" as="geometry">
            <mxPoint x="480" y="430" as="sourcePoint" />
            <mxPoint x="520" y="460" as="targetPoint" />
          </mxGeometry>
        </mxCell>
        <mxCell id="NXSZnqqENL-7S4XXd65T-34" value="" style="shape=flexArrow;endArrow=classic;html=1;rounded=0;exitX=1;exitY=0.5;exitDx=0;exitDy=0;fillColor=default;" edge="1" parent="1" source="NXSZnqqENL-7S4XXd65T-4">
          <mxGeometry width="50" height="50" relative="1" as="geometry">
            <mxPoint x="480" y="430" as="sourcePoint" />
            <mxPoint x="520" y="540" as="targetPoint" />
          </mxGeometry>
        </mxCell>
        <mxCell id="NXSZnqqENL-7S4XXd65T-40" style="edgeStyle=orthogonalEdgeStyle;rounded=0;orthogonalLoop=1;jettySize=auto;html=1;entryX=0.5;entryY=1;entryDx=0;entryDy=0;shape=flexArrow;" edge="1" parent="1" source="NXSZnqqENL-7S4XXd65T-35" target="NXSZnqqENL-7S4XXd65T-36">
          <mxGeometry relative="1" as="geometry" />
        </mxCell>
        <mxCell id="NXSZnqqENL-7S4XXd65T-42" value="ADDR[24:12]" style="edgeLabel;html=1;align=center;verticalAlign=middle;resizable=0;points=[];" vertex="1" connectable="0" parent="NXSZnqqENL-7S4XXd65T-40">
          <mxGeometry x="-0.5389" y="-2" relative="1" as="geometry">
            <mxPoint x="7" y="-17" as="offset" />
          </mxGeometry>
        </mxCell>
        <mxCell id="NXSZnqqENL-7S4XXd65T-35" value="" style="shape=trapezoid;perimeter=trapezoidPerimeter;whiteSpace=wrap;html=1;fixedSize=1;rotation=90;size=55;" vertex="1" parent="1">
          <mxGeometry x="465" y="445" width="170" height="60" as="geometry" />
        </mxCell>
        <mxCell id="NXSZnqqENL-7S4XXd65T-41" style="edgeStyle=orthogonalEdgeStyle;rounded=0;orthogonalLoop=1;jettySize=auto;html=1;shape=flexArrow;" edge="1" parent="1" source="NXSZnqqENL-7S4XXd65T-36">
          <mxGeometry relative="1" as="geometry">
            <mxPoint x="890" y="250" as="targetPoint" />
          </mxGeometry>
        </mxCell>
        <mxCell id="NXSZnqqENL-7S4XXd65T-43" value="ADDR[24:0]" style="edgeLabel;html=1;align=center;verticalAlign=middle;resizable=0;points=[];" vertex="1" connectable="0" parent="NXSZnqqENL-7S4XXd65T-41">
          <mxGeometry x="-0.3158" relative="1" as="geometry">
            <mxPoint x="6" y="-20" as="offset" />
          </mxGeometry>
        </mxCell>
        <mxCell id="NXSZnqqENL-7S4XXd65T-36" value="+" style="ellipse;whiteSpace=wrap;html=1;aspect=fixed;" vertex="1" parent="1">
          <mxGeometry x="690" y="210" width="80" height="80" as="geometry" />
        </mxCell>
        <mxCell id="NXSZnqqENL-7S4XXd65T-45" value="" style="shape=flexArrow;endArrow=classic;html=1;rounded=0;entryX=0.25;entryY=0;entryDx=0;entryDy=0;" edge="1" parent="1" target="NXSZnqqENL-7S4XXd65T-1">
          <mxGeometry width="50" height="50" relative="1" as="geometry">
            <mxPoint x="320" y="320" as="sourcePoint" />
            <mxPoint x="310" y="320" as="targetPoint" />
            <Array as="points">
              <mxPoint x="320" y="360" />
              <mxPoint x="280" y="360" />
            </Array>
          </mxGeometry>
        </mxCell>
        <mxCell id="NXSZnqqENL-7S4XXd65T-50" style="edgeStyle=orthogonalEdgeStyle;rounded=0;orthogonalLoop=1;jettySize=auto;html=1;entryX=0;entryY=0.5;entryDx=0;entryDy=0;shape=arrow;" edge="1" parent="1" source="NXSZnqqENL-7S4XXd65T-47" target="NXSZnqqENL-7S4XXd65T-49">
          <mxGeometry relative="1" as="geometry" />
        </mxCell>
        <mxCell id="NXSZnqqENL-7S4XXd65T-47" value="Decoder" style="shape=trapezoid;perimeter=trapezoidPerimeter;whiteSpace=wrap;html=1;fixedSize=1;rotation=-90;size=30;" vertex="1" parent="1">
          <mxGeometry x="-10" y="370" width="120" height="40" as="geometry" />
        </mxCell>
        <mxCell id="NXSZnqqENL-7S4XXd65T-55" style="edgeStyle=orthogonalEdgeStyle;rounded=0;orthogonalLoop=1;jettySize=auto;html=1;exitX=1;exitY=0.25;exitDx=0;exitDy=0;entryX=0;entryY=0.5;entryDx=0;entryDy=0;" edge="1" parent="1" source="NXSZnqqENL-7S4XXd65T-49" target="NXSZnqqENL-7S4XXd65T-1">
          <mxGeometry relative="1" as="geometry">
            <Array as="points">
              <mxPoint x="220" y="360" />
              <mxPoint x="220" y="420" />
            </Array>
          </mxGeometry>
        </mxCell>
        <mxCell id="NXSZnqqENL-7S4XXd65T-81" value="we[1:0]" style="edgeLabel;html=1;align=center;verticalAlign=middle;resizable=0;points=[];" vertex="1" connectable="0" parent="NXSZnqqENL-7S4XXd65T-55">
          <mxGeometry x="-0.3218" relative="1" as="geometry">
            <mxPoint x="-17" y="-10" as="offset" />
          </mxGeometry>
        </mxCell>
        <mxCell id="NXSZnqqENL-7S4XXd65T-56" style="edgeStyle=orthogonalEdgeStyle;rounded=0;orthogonalLoop=1;jettySize=auto;html=1;exitX=1;exitY=0.5;exitDx=0;exitDy=0;entryX=0;entryY=0.5;entryDx=0;entryDy=0;" edge="1" parent="1" source="NXSZnqqENL-7S4XXd65T-49" target="NXSZnqqENL-7S4XXd65T-3">
          <mxGeometry relative="1" as="geometry">
            <Array as="points">
              <mxPoint x="210" y="390" />
              <mxPoint x="210" y="460" />
            </Array>
          </mxGeometry>
        </mxCell>
        <mxCell id="NXSZnqqENL-7S4XXd65T-82" value="we[1:0]" style="edgeLabel;html=1;align=center;verticalAlign=middle;resizable=0;points=[];" vertex="1" connectable="0" parent="NXSZnqqENL-7S4XXd65T-56">
          <mxGeometry x="-0.7003" relative="1" as="geometry">
            <mxPoint x="8" y="-10" as="offset" />
          </mxGeometry>
        </mxCell>
        <mxCell id="NXSZnqqENL-7S4XXd65T-57" style="edgeStyle=orthogonalEdgeStyle;rounded=0;orthogonalLoop=1;jettySize=auto;html=1;exitX=1;exitY=0.75;exitDx=0;exitDy=0;entryX=0;entryY=0.5;entryDx=0;entryDy=0;" edge="1" parent="1" source="NXSZnqqENL-7S4XXd65T-49" target="NXSZnqqENL-7S4XXd65T-4">
          <mxGeometry relative="1" as="geometry">
            <Array as="points">
              <mxPoint x="190" y="420" />
              <mxPoint x="190" y="540" />
            </Array>
          </mxGeometry>
        </mxCell>
        <mxCell id="NXSZnqqENL-7S4XXd65T-83" value="we[1:0]" style="edgeLabel;html=1;align=center;verticalAlign=middle;resizable=0;points=[];" vertex="1" connectable="0" parent="NXSZnqqENL-7S4XXd65T-57">
          <mxGeometry x="-0.7895" y="1" relative="1" as="geometry">
            <mxPoint x="9" y="-9" as="offset" />
          </mxGeometry>
        </mxCell>
        <mxCell id="NXSZnqqENL-7S4XXd65T-49" value="&amp;amp;" style="rounded=0;whiteSpace=wrap;html=1;" vertex="1" parent="1">
          <mxGeometry x="120" y="330" width="40" height="120" as="geometry" />
        </mxCell>
        <mxCell id="NXSZnqqENL-7S4XXd65T-51" value="" style="endArrow=classic;html=1;rounded=0;entryX=0.25;entryY=0;entryDx=0;entryDy=0;" edge="1" parent="1" target="NXSZnqqENL-7S4XXd65T-49">
          <mxGeometry width="50" height="50" relative="1" as="geometry">
            <mxPoint x="130" y="300" as="sourcePoint" />
            <mxPoint x="210" y="310" as="targetPoint" />
          </mxGeometry>
        </mxCell>
        <mxCell id="NXSZnqqENL-7S4XXd65T-52" value="CS" style="edgeLabel;html=1;align=center;verticalAlign=middle;resizable=0;points=[];" vertex="1" connectable="0" parent="NXSZnqqENL-7S4XXd65T-51">
          <mxGeometry x="-0.7662" relative="1" as="geometry">
            <mxPoint y="-14" as="offset" />
          </mxGeometry>
        </mxCell>
        <mxCell id="NXSZnqqENL-7S4XXd65T-53" value="" style="endArrow=classic;html=1;rounded=0;entryX=0.75;entryY=0;entryDx=0;entryDy=0;" edge="1" parent="1" target="NXSZnqqENL-7S4XXd65T-49">
          <mxGeometry width="50" height="50" relative="1" as="geometry">
            <mxPoint x="150" y="300" as="sourcePoint" />
            <mxPoint x="210" y="310" as="targetPoint" />
          </mxGeometry>
        </mxCell>
        <mxCell id="NXSZnqqENL-7S4XXd65T-54" value="WE" style="edgeLabel;html=1;align=center;verticalAlign=middle;resizable=0;points=[];" vertex="1" connectable="0" parent="NXSZnqqENL-7S4XXd65T-53">
          <mxGeometry x="-0.7143" relative="1" as="geometry">
            <mxPoint y="-14" as="offset" />
          </mxGeometry>
        </mxCell>
        <mxCell id="NXSZnqqENL-7S4XXd65T-63" value="" style="edgeStyle=orthogonalEdgeStyle;rounded=0;orthogonalLoop=1;jettySize=auto;html=1;shape=flexArrow;" edge="1" parent="1" source="NXSZnqqENL-7S4XXd65T-58" target="NXSZnqqENL-7S4XXd65T-62">
          <mxGeometry relative="1" as="geometry" />
        </mxCell>
        <mxCell id="NXSZnqqENL-7S4XXd65T-71" value="data[15:0]" style="edgeLabel;html=1;align=center;verticalAlign=middle;resizable=0;points=[];labelBackgroundColor=none;" vertex="1" connectable="0" parent="NXSZnqqENL-7S4XXd65T-63">
          <mxGeometry x="-0.258" y="-1" relative="1" as="geometry">
            <mxPoint x="31" y="-5" as="offset" />
          </mxGeometry>
        </mxCell>
        <mxCell id="NXSZnqqENL-7S4XXd65T-58" value="" style="shape=trapezoid;perimeter=trapezoidPerimeter;fixedSize=1;size=20;rotation=-180;html=1;whiteSpace=wrap;horizontal=1;" vertex="1" parent="1">
          <mxGeometry x="390" y="610" width="120" height="40" as="geometry" />
        </mxCell>
        <mxCell id="NXSZnqqENL-7S4XXd65T-72" style="edgeStyle=orthogonalEdgeStyle;rounded=0;orthogonalLoop=1;jettySize=auto;html=1;exitX=0.5;exitY=0;exitDx=0;exitDy=0;shape=flexArrow;" edge="1" parent="1" source="NXSZnqqENL-7S4XXd65T-62">
          <mxGeometry relative="1" as="geometry">
            <mxPoint x="450" y="780" as="targetPoint" />
          </mxGeometry>
        </mxCell>
        <mxCell id="NXSZnqqENL-7S4XXd65T-73" value="DATA_OUT[7:0]" style="edgeLabel;html=1;align=center;verticalAlign=middle;resizable=0;points=[];" vertex="1" connectable="0" parent="NXSZnqqENL-7S4XXd65T-72">
          <mxGeometry x="0.3305" y="-2" relative="1" as="geometry">
            <mxPoint x="52" y="-13" as="offset" />
          </mxGeometry>
        </mxCell>
        <mxCell id="NXSZnqqENL-7S4XXd65T-62" value="" style="shape=trapezoid;perimeter=trapezoidPerimeter;whiteSpace=wrap;html=1;fixedSize=1;size=20;rotation=-180;" vertex="1" parent="1">
          <mxGeometry x="390" y="690" width="120" height="40" as="geometry" />
        </mxCell>
        <mxCell id="NXSZnqqENL-7S4XXd65T-66" style="edgeStyle=orthogonalEdgeStyle;rounded=0;orthogonalLoop=1;jettySize=auto;html=1;entryX=1;entryY=0.5;entryDx=0;entryDy=0;exitX=1;exitY=0.5;exitDx=0;exitDy=0;" edge="1" parent="1" source="NXSZnqqENL-7S4XXd65T-77" target="NXSZnqqENL-7S4XXd65T-62">
          <mxGeometry relative="1" as="geometry">
            <Array as="points">
              <mxPoint x="250" y="630" />
              <mxPoint x="250" y="710" />
            </Array>
          </mxGeometry>
        </mxCell>
        <mxCell id="NXSZnqqENL-7S4XXd65T-68" value="ADDR[0]" style="edgeLabel;html=1;align=center;verticalAlign=middle;resizable=0;points=[];" vertex="1" connectable="0" parent="NXSZnqqENL-7S4XXd65T-66">
          <mxGeometry x="0.4898" relative="1" as="geometry">
            <mxPoint x="3" y="-10" as="offset" />
          </mxGeometry>
        </mxCell>
        <mxCell id="NXSZnqqENL-7S4XXd65T-64" value="" style="triangle;whiteSpace=wrap;html=1;" vertex="1" parent="1">
          <mxGeometry x="-160" y="590" width="60" height="80" as="geometry" />
        </mxCell>
        <mxCell id="NXSZnqqENL-7S4XXd65T-65" style="edgeStyle=orthogonalEdgeStyle;rounded=0;orthogonalLoop=1;jettySize=auto;html=1;shape=flexArrow;fillColor=default;entryX=0;entryY=0.5;entryDx=0;entryDy=0;" edge="1" parent="1" source="NXSZnqqENL-7S4XXd65T-64" target="NXSZnqqENL-7S4XXd65T-77">
          <mxGeometry relative="1" as="geometry">
            <mxPoint x="200" y="630" as="targetPoint" />
          </mxGeometry>
        </mxCell>
        <mxCell id="NXSZnqqENL-7S4XXd65T-67" value="ADDR[4:0]" style="edgeLabel;html=1;align=center;verticalAlign=middle;resizable=0;points=[];labelBackgroundColor=none;" vertex="1" connectable="0" parent="NXSZnqqENL-7S4XXd65T-65">
          <mxGeometry x="0.1394" relative="1" as="geometry">
            <mxPoint x="-115" y="-15" as="offset" />
          </mxGeometry>
        </mxCell>
        <mxCell id="NXSZnqqENL-7S4XXd65T-69" value="WORD MUX" style="text;html=1;strokeColor=none;fillColor=none;align=center;verticalAlign=middle;whiteSpace=wrap;rounded=0;" vertex="1" parent="1">
          <mxGeometry x="410" y="615" width="80" height="30" as="geometry" />
        </mxCell>
        <mxCell id="NXSZnqqENL-7S4XXd65T-70" value="BYTE MUX" style="text;html=1;strokeColor=none;fillColor=none;align=center;verticalAlign=middle;whiteSpace=wrap;rounded=0;" vertex="1" parent="1">
          <mxGeometry x="410" y="695" width="80" height="30" as="geometry" />
        </mxCell>
        <mxCell id="NXSZnqqENL-7S4XXd65T-74" value="" style="shape=flexArrow;endArrow=classic;html=1;rounded=0;entryX=0.75;entryY=0;entryDx=0;entryDy=0;fillColor=default;" edge="1" parent="1" target="NXSZnqqENL-7S4XXd65T-1">
          <mxGeometry width="50" height="50" relative="1" as="geometry">
            <mxPoint x="320" y="310" as="sourcePoint" />
            <mxPoint x="340" y="380" as="targetPoint" />
            <Array as="points">
              <mxPoint x="320" y="360" />
              <mxPoint x="360" y="360" />
            </Array>
          </mxGeometry>
        </mxCell>
        <mxCell id="NXSZnqqENL-7S4XXd65T-75" value="DATA_IN[7:0]" style="edgeLabel;html=1;align=center;verticalAlign=middle;resizable=0;points=[];" vertex="1" connectable="0" parent="NXSZnqqENL-7S4XXd65T-74">
          <mxGeometry x="-0.5016" y="-1" relative="1" as="geometry">
            <mxPoint x="41" y="-2" as="offset" />
          </mxGeometry>
        </mxCell>
        <mxCell id="NXSZnqqENL-7S4XXd65T-77" value="4&lt;br&gt;1" style="ellipse;whiteSpace=wrap;html=1;" vertex="1" parent="1">
          <mxGeometry x="190" y="590" width="120" height="80" as="geometry" />
        </mxCell>
        <mxCell id="NXSZnqqENL-7S4XXd65T-78" style="edgeStyle=orthogonalEdgeStyle;rounded=0;orthogonalLoop=1;jettySize=auto;html=1;entryX=1;entryY=0.5;entryDx=0;entryDy=0;shape=flexArrow;fillColor=default;" edge="1" parent="1" source="NXSZnqqENL-7S4XXd65T-77" target="NXSZnqqENL-7S4XXd65T-58">
          <mxGeometry relative="1" as="geometry" />
        </mxCell>
        <mxCell id="NXSZnqqENL-7S4XXd65T-79" value="ADDR[4:1]" style="edgeLabel;html=1;align=center;verticalAlign=middle;resizable=0;points=[];" vertex="1" connectable="0" parent="NXSZnqqENL-7S4XXd65T-78">
          <mxGeometry x="0.1248" relative="1" as="geometry">
            <mxPoint x="-11" y="-15" as="offset" />
          </mxGeometry>
        </mxCell>
        <mxCell id="NXSZnqqENL-7S4XXd65T-85" value="&lt;h1&gt;MM Registers&lt;/h1&gt;&lt;p&gt;MM Registers are 16 bit.&lt;/p&gt;&lt;p&gt;There are 16 MM registers&lt;/p&gt;&lt;p&gt;There are 2 write enables, one for the high byte and one for the low byte.&lt;/p&gt;&lt;p&gt;&lt;br&gt;&lt;/p&gt;&lt;p&gt;For reading, first the register is selected, then the byte in the register is selected&lt;/p&gt;" style="text;html=1;strokeColor=none;fillColor=none;spacing=5;spacingTop=-20;whiteSpace=wrap;overflow=hidden;rounded=0;" vertex="1" parent="1">
          <mxGeometry x="610" y="570" width="230" height="210" as="geometry" />
        </mxCell>
        <mxCell id="NXSZnqqENL-7S4XXd65T-86" value="" style="triangle;whiteSpace=wrap;html=1;rotation=90;" vertex="1" parent="1">
          <mxGeometry x="290" y="240" width="60" height="80" as="geometry" />
        </mxCell>
        <mxCell id="NXSZnqqENL-7S4XXd65T-87" value="" style="triangle;whiteSpace=wrap;html=1;rotation=90;" vertex="1" parent="1">
          <mxGeometry x="420" y="770" width="60" height="80" as="geometry" />
        </mxCell>
        <mxCell id="NXSZnqqENL-7S4XXd65T-88" value="" style="triangle;whiteSpace=wrap;html=1;" vertex="1" parent="1">
          <mxGeometry x="890" y="210" width="60" height="80" as="geometry" />
        </mxCell>
      </root>
    </mxGraphModel>
  </diagram>
</mxfile>
